<svg xmlns="http://www.w3.org/2000/svg" 
     viewBox="0 0 64 64" 
     width="24px" 
     height="24px">
  <g fill="#000000">
    <path d="M50,34.7C50,17,42.8,6,36.2,6C23.5,6,8,22.2,8,35.4c0,5.2,3.8,10.1,10.7,13.8c6.1,3.3,13,4.8,17.1,4.8C40,54,50,54,50,34.7z M35.7,52C27.9,52,10,45.7,10,35.4C10,23.4,24.7,8,36.2,8c2.5,0,5.6,2.4,7.9,7.1c-0.6,0.8-1.4,1.8-2.4,2.2c-2.4,1.1-5.5,1.9-8.5,1.9c-4.8,0-13.2,0.2-14.4,8C18.6,28.6,19,30,20.3,30c1,0,1.9-0.9,2-2.1s1.5-6,6.7-6c-0.5,2-1.6,6.2-2.9,9.3c-1.6,3.9-4.1,7.7-4.9,7.7s-3-1.7-3.3-2s-0.8-0.9-1.5-0.9c-0.7,0-1.6,0.4-1.6,1.2c0,0.9,3.3,4.8,7.3,4.8s7.8-7.3,7.8-7.3s6.8,0.5,6.7,4.8c-0.1,2.9-0.6,6.4-0.6,7.5s0.8,2.3,2,2.3s1.9-0.8,2.1-2.5c0.5-6.8,1.9-14.6-7.7-16.3c2-3.5,3.5-9,3.5-9s5.5-0.3,9.3-4.2c1.7,4.3,2.9,10.1,2.9,17.4C48,52,40,52,35.7,52z M31.1,42.6c-1.8,0-3.3,1.7-3.3,3.7s1.5,3.7,3.3,3.7c1.8,0,3.3-1.7,3.3-3.7S32.9,42.6,31.1,42.6z M31.1,48.4c-1,0-1.9-0.9-1.9-2.1s0.8-2.1,1.9-2.1s1.9,0.9,1.9,2.1S32.1,48.4,31.1,48.4z M31.1,15.7c0.2-1.5,1.6-2.7,3-2.7s2.3,1.2,2.1,2.7c-0.2,1.5-1.6,2.7-3,2.7S30.9,17.2,31.1,15.7z"/>
  </g>
</svg>
